<svg viewBox="0 0 2000 1000" xmlns="http://www.w3.org/2000/svg"><path fill="#000336" d="M0 0h2000v1000H0z"/><ellipse cx="47.758" cy="47.069" rx="1.86" ry="1.422" fill="#fff" opacity=".319"/><ellipse cx="115.25" cy=".8" rx="1.69" ry="1.645" fill="#fff" opacity=".531"/><ellipse cx="231.052" cy="41.966" rx="1.602" ry="1.408" fill="#fff" opacity=".131"/><ellipse cx="295.83" cy="8.06" rx="1.978" ry="1.844" fill="#fff" opacity=".283"/><ellipse cx="353.258" cy="27.036" rx="1.891" ry="1.592" fill="#fff" opacity=".443"/><ellipse cx="405.491" cy="25.476" rx="1.883" ry="1.681" fill="#fff" opacity="-.093"/><ellipse cx="498.277" cy="36.649" rx="2.085" ry="1.671" fill="#fff" opacity=".728"/><ellipse cx="594.264" cy="36.707" rx="1.985" ry="1.646" fill="#fff" opacity=".349"/><ellipse cx="661.34" cy="15.215" rx="1.921" ry="1.832" fill="#fff" opacity="-.095"/><ellipse cx="729.539" cy="8.14" rx="1.268" ry="1.196" fill="#fff" opacity="-.062"/><ellipse cx="804.859" cy="45.809" rx="1.295" ry="1.128" fill="#fff" opacity=".614"/><ellipse cx="953.416" cy="6.989" rx="1.593" ry="1.313" fill="#fff" opacity=".701"/><ellipse cx="989.287" cy="3.093" rx="1.927" ry="1.485" fill="#fff" opacity=".88"/><ellipse cx="1108.416" cy="25.215" rx="2.013" ry="1.732" fill="#fff" opacity=".726"/><ellipse cx="1156.044" cy="13.921" rx="1.191" ry="1.127" fill="#fff" opacity=".475"/><ellipse cx="1216.65" cy="17.545" rx="1.965" ry="1.491" fill="#fff" opacity=".253"/><ellipse cx="1281.093" cy="17.039" rx="1.999" ry="1.939" fill="#fff" opacity="-.206"/><ellipse cx="1435.578" cy="24.06" rx="1.62" ry="1.373" fill="#fff" opacity=".107"/><ellipse cx="1489.193" cy="35.602" rx="1.588" ry="1.469" fill="#fff" opacity=".114"/><ellipse cx="1570.744" cy="49.945" rx="2.451" ry="1.969" fill="#fff" opacity=".485"/><ellipse cx="1614.701" cy="18.256" rx="1.432" ry="1.425" fill="#fff" opacity="-.075"/><ellipse cx="1746.765" cy="47.469" rx="1.419" ry="1.319" fill="#fff" opacity="-.044"/><ellipse cx="1815.678" cy="34.921" rx="2.431" ry="1.954" fill="#fff" opacity=".554"/><ellipse cx="1863.578" cy="17.084" rx="2.349" ry="1.881" fill="#fff" opacity=".576"/><ellipse cx="1983.93" cy="32.122" rx="1.996" ry="1.974" fill="#fff" opacity=".129"/><ellipse cx="62.093" cy="51.187" rx="1.573" ry="1.2" fill="#fff" opacity=".679"/><ellipse cx="118.307" cy="74.232" rx="1.802" ry="1.603" fill="#fff" opacity="-.21"/><ellipse cx="173.602" cy="54.042" rx="2.199" ry="1.843" fill="#fff" opacity=".857"/><ellipse cx="259.856" cy="63.234" rx="1.882" ry="1.58" fill="#fff" opacity=".584"/><ellipse cx="367.477" cy="89.1" rx="2.316" ry="1.82" fill="#fff" opacity="-.016"/><ellipse cx="477.845" cy="95.764" rx="1.059" ry="1.01" fill="#fff" opacity="-.093"/><ellipse cx="559.779" cy="62.572" rx="1.766" ry="1.524" fill="#fff" opacity=".231"/><ellipse cx="590.791" cy="94.747" rx="1.866" ry="1.752" fill="#fff" opacity=".517"/><ellipse cx="699.759" cy="64.511" rx="2.249" ry="1.754" fill="#fff" opacity=".342"/><ellipse cx="757.189" cy="78.979" rx="1.737" ry="1.245" fill="#fff" opacity=".741"/><ellipse cx="866.527" cy="99.065" rx="1.588" ry="1.161" fill="#fff" opacity="-.006"/><ellipse cx="885.629" cy="74.825" rx="1.455" ry="1.343" fill="#fff" opacity=".562"/><ellipse cx="960.606" cy="74.074" rx="2.009" ry="1.971" fill="#fff" opacity=".552"/><ellipse cx="1112.984" cy="76.99" rx="1.516" ry="1.468" fill="#fff" opacity=".555"/><ellipse cx="1182.379" cy="91.71" rx="1.496" ry="1.042" fill="#fff" opacity="-.233"/><ellipse cx="1265.306" cy="64.681" rx="2.155" ry="1.911" fill="#fff" opacity=".382"/><ellipse cx="1318.629" cy="60.141" rx="1.763" ry="1.595" fill="#fff" opacity=".464"/><ellipse cx="1405.552" cy="79.856" rx="2.292" ry="1.796" fill="#fff" opacity=".068"/><ellipse cx="1507.147" cy="69.023" rx="1.119" ry="1.067" fill="#fff" opacity=".846"/><ellipse cx="1563.082" cy="50.214" rx="2.036" ry="1.986" fill="#fff" opacity="-.056"/><ellipse cx="1612.376" cy="73.241" rx="2.136" ry="1.778" fill="#fff" opacity=".203"/><ellipse cx="1740.581" cy="58.52" rx="1.505" ry="1.418" fill="#fff" opacity=".505"/><ellipse cx="1825.196" cy="65.887" rx="1.562" ry="1.336" fill="#fff" opacity=".874"/><ellipse cx="1880.306" cy="65.599" rx="2.17" ry="1.723" fill="#fff" opacity=".077"/><ellipse cx="1951.619" cy="91.629" rx="1.808" ry="1.38" fill="#fff" opacity=".035"/><ellipse cx="8.034" cy="128.28" rx="1.735" ry="1.395" fill="#fff" opacity=".338"/><ellipse cx="146.047" cy="105.787" rx="1.84" ry="1.73" fill="#fff" opacity=".235"/><ellipse cx="170.365" cy="127.044" rx="1.909" ry="1.61" fill="#fff" opacity="-.202"/><ellipse cx="285.565" cy="149.667" rx="1.709" ry="1.499" fill="#fff" opacity=".373"/><ellipse cx="385.015" cy="117.378" rx="2.321" ry="1.929" fill="#fff" opacity="-.163"/><ellipse cx="428.665" cy="105.193" rx="2.066" ry="1.871" fill="#fff" opacity=".443"/><ellipse cx="512.617" cy="102.788" rx="2.096" ry="1.93" fill="#fff" opacity=".965"/><ellipse cx="598.532" cy="122.734" rx="2.109" ry="1.609" fill="#fff" opacity=".097"/><ellipse cx="664.234" cy="146.843" rx="2.331" ry="1.98" fill="#fff" opacity=".207"/><ellipse cx="775.771" cy="133.833" rx="1.757" ry="1.693" fill="#fff" opacity=".179"/><ellipse cx="874.972" cy="116.032" rx="2.375" ry="1.972" fill="#fff" opacity=".562"/><ellipse cx="890.334" cy="114.634" rx="2.217" ry="1.974" fill="#fff" opacity=".214"/><ellipse cx="1015.982" cy="146.403" rx="1.3" ry="1.294" fill="#fff" opacity=".031"/><ellipse cx="1048.887" cy="142.777" rx="1.073" ry="1.035" fill="#fff" opacity="-.229"/><ellipse cx="1187.518" cy="102.448" rx="1.837" ry="1.795" fill="#fff" opacity=".763"/><ellipse cx="1232.643" cy="132.837" rx="2.441" ry="1.952" fill="#fff" opacity=".622"/><ellipse cx="1301.064" cy="113.963" rx="2.031" ry="1.723" fill="#fff" opacity=".754"/><ellipse cx="1370.89" cy="149.972" rx="2.449" ry="1.968" fill="#fff" opacity=".76"/><ellipse cx="1452.458" cy="131.933" rx="1.974" ry="1.501" fill="#fff" opacity=".49"/><ellipse cx="1575.354" cy="129.816" rx="1.334" ry="1.272" fill="#fff" opacity=".833"/><ellipse cx="1623.807" cy="111.543" rx="1.823" ry="1.52" fill="#fff" opacity=".247"/><ellipse cx="1703.282" cy="140.386" rx="2.116" ry="1.931" fill="#fff" opacity=".287"/><ellipse cx="1775.771" cy="124.191" rx="1.927" ry="1.576" fill="#fff" opacity=".358"/><ellipse cx="1917.169" cy="124.136" rx="1.607" ry="1.515" fill="#fff" opacity=".457"/><ellipse cx="1981.777" cy="125.022" rx="1.698" ry="1.568" fill="#fff" opacity=".652"/><ellipse cx="22.577" cy="181.188" rx="1.58" ry="1.546" fill="#fff" opacity=".43"/><circle cx="87.358" cy="161.394" fill="#fff" opacity=".708" r="1.874"/><ellipse cx="190.878" cy="195.829" rx="2.043" ry="1.771" fill="#fff" opacity=".123"/><ellipse cx="309.709" cy="152.698" rx="1.904" ry="1.522" fill="#fff" opacity=".392"/><ellipse cx="360.243" cy="173.908" rx="1.793" ry="1.357" fill="#fff" opacity=".234"/><ellipse cx="479.378" cy="195.477" rx="2.316" ry="1.853" fill="#fff" opacity=".606"/><ellipse cx="534.408" cy="162.403" rx="1.113" ry="1.02" fill="#fff" opacity=".441"/><ellipse cx="631.963" cy="169.482" rx="2.086" ry="1.7" fill="#fff" opacity=".35"/><ellipse cx="676.807" cy="189.034" rx="1.453" ry="1.218" fill="#fff" opacity=".148"/><ellipse cx="742.246" cy="194.493" rx="1.048" ry="1.027" fill="#fff" opacity=".205"/><ellipse cx="821.711" cy="155.609" rx="1.411" ry="1.2" fill="#fff" opacity=".005"/><ellipse cx="915.376" cy="167.793" rx="2.12" ry="1.775" fill="#fff" opacity=".353"/><ellipse cx="1023.193" cy="187.648" rx="1.732" ry="1.46" fill="#fff" opacity=".541"/><ellipse cx="1079.53" cy="199.075" rx="1.808" ry="1.487" fill="#fff" opacity="-.033"/><ellipse cx="1121.386" cy="164.122" rx="1.543" ry="1.444" fill="#fff" opacity=".429"/><ellipse cx="1238.57" cy="175.323" rx="1.498" ry="1.124" fill="#fff" opacity=".538"/><ellipse cx="1356.8" cy="170.195" rx="2.196" ry="1.761" fill="#fff" opacity=".321"/><ellipse cx="1429.558" cy="152.094" rx="1.374" ry="1.236" fill="#fff" opacity=".526"/><ellipse cx="1479.569" cy="167.959" rx="1.501" ry="1.462" fill="#fff" opacity=".319"/><ellipse cx="1533.603" cy="172.765" rx="1.82" ry="1.819" fill="#fff" opacity="-.148"/><ellipse cx="1621.341" cy="193.144" rx="1.945" ry="1.558" fill="#fff" opacity=".214"/><ellipse cx="1738.438" cy="197.22" rx="2.293" ry="1.807" fill="#fff" opacity=".109"/><ellipse cx="1826.063" cy="164.196" rx="2.05" ry="1.692" fill="#fff" opacity=".396"/><ellipse cx="1918.007" cy="190.249" rx="1.475" ry="1.261" fill="#fff" opacity=".733"/><ellipse cx="1960.295" cy="166.568" rx="1.487" ry="1.183" fill="#fff" opacity=".19"/><ellipse cx="38.277" cy="225.711" rx="1.82" ry="1.469" fill="#fff" opacity=".703"/><ellipse cx="134.938" cy="215.726" rx="1.591" ry="1.537" fill="#fff" opacity=".69"/><ellipse cx="184.027" cy="229.519" rx="1.5" ry="1.216" fill="#fff" opacity=".068"/><ellipse cx="286.026" cy="226.962" rx="1.514" ry="1.476" fill="#fff" opacity=".815"/><ellipse cx="341.247" cy="220.404" rx="1.216" ry="1.037" fill="#fff" opacity=".5"/><ellipse cx="412.064" cy="212.159" rx="1.817" ry="1.799" fill="#fff" opacity="-.076"/><ellipse cx="494.237" cy="242.748" rx="1.179" ry="1.102" fill="#fff" opacity=".478"/><ellipse cx="592.63" cy="216.884" rx="1.994" ry="1.531" fill="#fff" opacity="-.15"/><ellipse cx="681.057" cy="245.446" rx="1.443" ry="1.266" fill="#fff" opacity=".689"/><ellipse cx="733.352" cy="221.687" rx="1.867" ry="1.374" fill="#fff" opacity=".455"/><ellipse cx="811.495" cy="214.869" rx="1.098" ry="1.093" fill="#fff" opacity=".337"/><ellipse cx="922.622" cy="235.173" rx="1.909" ry="1.842" fill="#fff" opacity="-.245"/><ellipse cx="1006.18" cy="203.408" rx="2.042" ry="1.943" fill="#fff" opacity="-.019"/><ellipse cx="1063.168" cy="200.514" rx="1.45" ry="1.321" fill="#fff" opacity=".132"/><ellipse cx="1172.648" cy="211.722" rx="1.231" ry="1.017" fill="#fff" opacity="-.021"/><ellipse cx="1214.941" cy="214.211" rx="1.292" ry="1.125" fill="#fff" opacity=".589"/><ellipse cx="1316.133" cy="206.674" rx="1.65" ry="1.565" fill="#fff" opacity=".336"/><ellipse cx="1409.011" cy="207.526" rx="1.392" ry="1.185" fill="#fff" opacity=".198"/><ellipse cx="1448.78" cy="207.404" rx="2.186" ry="1.697" fill="#fff" opacity=".367"/><ellipse cx="1539.38" cy="232.178" rx="1.383" ry="1.133" fill="#fff" opacity=".253"/><ellipse cx="1628.762" cy="213.314" rx="1.617" ry="1.581" fill="#fff" opacity=".143"/><ellipse cx="1693.498" cy="217.317" rx="1.727" ry="1.459" fill="#fff" opacity=".717"/><ellipse cx="1819.817" cy="203.204" rx="1.639" ry="1.579" fill="#fff" opacity=".476"/><ellipse cx="1883.695" cy="231.44" rx="1.835" ry="1.675" fill="#fff" opacity=".455"/><ellipse cx="1991.783" cy="223.457" rx="1.582" ry="1.526" fill="#fff" opacity=".093"/><ellipse cx="67.276" cy="252.266" rx="1.813" ry="1.671" fill="#fff" opacity=".594"/><ellipse cx="91.872" cy="269.189" rx="1.394" ry="1.298" fill="#fff" opacity=".41"/><ellipse cx="176.88" cy="276.387" rx="1.627" ry="1.185" fill="#fff" opacity=".95"/><ellipse cx="247.693" cy="287.416" rx="1.677" ry="1.399" fill="#fff" opacity=".18"/><ellipse cx="383.123" cy="297.681" rx="1.957" ry="1.767" fill="#fff" opacity=".67"/><ellipse cx="447.54" cy="269.94" rx="1.245" ry="1.159" fill="#fff" opacity=".469"/><ellipse cx="529.859" cy="250.89" rx="1.634" ry="1.498" fill="#fff" opacity=".301"/><ellipse cx="631.53" cy="261.2" rx="1.479" ry="1.053" fill="#fff" opacity=".527"/><ellipse cx="713.537" cy="261.325" rx="2.017" ry="1.708" fill="#fff" opacity=".755"/><ellipse cx="778.195" cy="253.65" rx="2.365" ry="1.961" fill="#fff" opacity=".784"/><ellipse cx="848.742" cy="269.276" rx="1.405" ry="1.309" fill="#fff" opacity=".183"/><ellipse cx="954.273" cy="265.564" rx="1.829" ry="1.471" fill="#fff" opacity=".091"/><ellipse cx="971.974" cy="283.011" rx="1.286" ry="1.166" fill="#fff" opacity=".033"/><ellipse cx="1046.161" cy="262.749" rx="1.303" ry="1.183" fill="#fff" opacity="-.143"/><ellipse cx="1184.01" cy="290.796" rx="1.775" ry="1.77" fill="#fff" opacity=".127"/><ellipse cx="1270.224" cy="259.383" rx="1.531" ry="1.078" fill="#fff" opacity=".157"/><ellipse cx="1348.153" cy="259.727" rx="1.555" ry="1.153" fill="#fff" opacity=".119"/><ellipse cx="1377.504" cy="265.881" rx="1.779" ry="1.392" fill="#fff" opacity=".463"/><ellipse cx="1519.711" cy="272.657" rx="1.921" ry="1.749" fill="#fff" opacity=".754"/><ellipse cx="1578.908" cy="260.848" rx="2.112" ry="1.751" fill="#fff" opacity="-.093"/><ellipse cx="1676.604" cy="296.113" rx="1.527" ry="1.379" fill="#fff" opacity=".302"/><ellipse cx="1722.076" cy="265.17" rx="1.355" ry="1.056" fill="#fff" opacity=".431"/><ellipse cx="1817.954" cy="294.269" rx="2.075" ry="1.641" fill="#fff" opacity=".919"/><ellipse cx="1860.42" cy="268.904" rx="1.707" ry="1.396" fill="#fff" opacity=".454"/><ellipse cx="1927.589" cy="270.278" rx="1.125" ry="1.091" fill="#fff" opacity=".785"/><ellipse cx="75.223" cy="339.195" rx="1.999" ry="1.628" fill="#fff" opacity=".697"/><ellipse cx="135.809" cy="348.087" rx="2.218" ry="1.798" fill="#fff" opacity="-.166"/><ellipse cx="219.871" cy="343.89" rx="2.291" ry="1.936" fill="#fff" opacity="-.119"/><ellipse cx="244.922" cy="336.613" rx="1.986" ry="1.545" fill="#fff" opacity=".089"/><ellipse cx="395.032" cy="343.717" rx="1.548" ry="1.134" fill="#fff" opacity=".54"/><ellipse cx="461.593" cy="335.454" rx="1.364" ry="1.26" fill="#fff" opacity=".065"/><ellipse cx="536.107" cy="318.08" rx="1.43" ry="1.14" fill="#fff" opacity=".549"/><ellipse cx="638.785" cy="303.327" rx="1.369" ry="1.06" fill="#fff" opacity="-.237"/><ellipse cx="643.912" cy="305.327" rx="1.65" ry="1.622" fill="#fff" opacity=".361"/><ellipse cx="778.152" cy="327.621" rx="1.219" ry="1.055" fill="#fff" opacity="-.023"/><ellipse cx="826.096" cy="309.176" rx="2.255" ry="1.785" fill="#fff" opacity=".478"/><ellipse cx="914.284" cy="349.484" rx="1.557" ry="1.159" fill="#fff" opacity=".206"/><ellipse cx="974.16" cy="305.375" rx="2.227" ry="1.968" fill="#fff" opacity=".472"/><ellipse cx="1055.407" cy="320.155" rx="1.621" ry="1.135" fill="#fff" opacity=".114"/><ellipse cx="1173.406" cy="301.531" rx="2.101" ry="1.797" fill="#fff" opacity="-.122"/><ellipse cx="1249.869" cy="337.803" rx="1.426" ry="1.244" fill="#fff" opacity=".014"/><ellipse cx="1344.494" cy="334.498" rx="1.34" ry="1.118" fill="#fff" opacity=".644"/><ellipse cx="1402.156" cy="346.182" rx="1.422" ry="1.228" fill="#fff" opacity="-.155"/><ellipse cx="1467.16" cy="323.13" rx="1.683" ry="1.445" fill="#fff" opacity=".856"/><ellipse cx="1565.776" cy="337.633" rx="2.238" ry="1.813" fill="#fff" opacity=".538"/><ellipse cx="1648.272" cy="332.35" rx="1.48" ry="1.186" fill="#fff" opacity=".08"/><ellipse cx="1719.01" cy="340.893" rx="1.573" ry="1.553" fill="#fff" opacity=".359"/><ellipse cx="1770.711" cy="316.929" rx="1.174" ry="1.104" fill="#fff" opacity="-.104"/><ellipse cx="1900.454" cy="331.145" rx="1.92" ry="1.689" fill="#fff" opacity=".513"/><ellipse cx="1986.994" cy="309.392" rx="2.085" ry="1.599" fill="#fff" opacity=".096"/><ellipse cx="60.438" cy="370.247" rx="1.85" ry="1.657" fill="#fff" opacity=".297"/><ellipse cx="127.55" cy="399.28" rx="2.061" ry="1.576" fill="#fff" opacity=".196"/><ellipse cx="205.248" cy="374.771" rx="2.294" ry="1.92" fill="#fff" opacity=".913"/><ellipse cx="264.647" cy="382.355" rx="1.818" ry="1.441" fill="#fff" opacity=".581"/><ellipse cx="356.364" cy="372.292" rx="1.747" ry="1.312" fill="#fff" opacity=".083"/><ellipse cx="479.372" cy="375.121" rx="1.462" ry="1.096" fill="#fff" opacity=".657"/><ellipse cx="552.397" cy="376.369" rx="2.1" ry="1.745" fill="#fff" opacity=".703"/><ellipse cx="598.542" cy="361.379" rx="2.242" ry="1.858" fill="#fff" opacity=".506"/><ellipse cx="685.036" cy="364.973" rx="1.969" ry="1.714" fill="#fff" opacity=".53"/><ellipse cx="732.133" cy="362.701" rx="1.348" ry="1.313" fill="#fff" opacity=".125"/><ellipse cx="816.795" cy="383.066" rx="1.827" ry="1.333" fill="#fff" opacity=".503"/><ellipse cx="884.675" cy="353.665" rx="1.255" ry="1.223" fill="#fff" opacity=".059"/><ellipse cx="1017.433" cy="389.538" rx="1.541" ry="1.299" fill="#fff" opacity=".635"/><ellipse cx="1096.709" cy="365.05" rx="1.537" ry="1.127" fill="#fff" opacity=".529"/><ellipse cx="1154.328" cy="356.616" rx="2.107" ry="1.82" fill="#fff" opacity=".35"/><ellipse cx="1226.971" cy="373.626" rx="1.19" ry="1.167" fill="#fff" opacity=".099"/><ellipse cx="1288.994" cy="391.987" rx="1.398" ry="1.212" fill="#fff" opacity=".764"/><ellipse cx="1367.817" cy="389.587" rx="1.693" ry="1.275" fill="#fff" opacity=".206"/><ellipse cx="1482.06" cy="368.338" rx="1.61" ry="1.39" fill="#fff" opacity=".547"/><ellipse cx="1563.05" cy="375.49" rx="1.896" ry="1.768" fill="#fff" opacity=".412"/><ellipse cx="1620.733" cy="386.907" rx="2.179" ry="1.783" fill="#fff" opacity=".763"/><ellipse cx="1718.489" cy="379.237" rx="1.803" ry="1.75" fill="#fff" opacity=".287"/><ellipse cx="1795.88" cy="395.882" rx="1.614" ry="1.562" fill="#fff" opacity=".563"/><ellipse cx="1916.705" cy="372.337" rx="1.857" ry="1.786" fill="#fff" opacity=".245"/><ellipse cx="1983.771" cy="356.713" rx="1.88" ry="1.855" fill="#fff" opacity=".647"/><ellipse cx="16.733" cy="403.195" rx="2.066" ry="1.722" fill="#fff" opacity=".173"/><ellipse cx="118.809" cy="440.402" rx="1.686" ry="1.673" fill="#fff" opacity=".21"/><ellipse cx="203.53" cy="423.564" rx="1.441" ry="1.397" fill="#fff" opacity=".664"/><ellipse cx="310.033" cy="420.043" rx="1.817" ry="1.703" fill="#fff" opacity="-.152"/><ellipse cx="356.514" cy="435.987" rx="1.909" ry="1.571" fill="#fff" opacity=".037"/><ellipse cx="428.237" cy="424.348" rx="1.862" ry="1.7" fill="#fff" opacity=".049"/><ellipse cx="551.472" cy="431.179" rx="1.594" ry="1.305" fill="#fff" opacity=".969"/><ellipse cx="631.743" cy="413.686" rx="1.185" ry="1.105" fill="#fff" opacity=".616"/><ellipse cx="674.803" cy="403.889" rx="1.338" ry="1.302" fill="#fff" opacity=".18"/><ellipse cx="752.788" cy="439.13" rx="2.128" ry="1.697" fill="#fff" opacity=".597"/><ellipse cx="859.379" cy="418.308" rx="1.825" ry="1.799" fill="#fff" opacity=".409"/><ellipse cx="923.403" cy="401.493" rx="1.118" ry="1.053" fill="#fff" opacity=".432"/><ellipse cx="1026.679" cy="432.613" rx="2.407" ry="1.98" fill="#fff" opacity=".506"/><ellipse cx="1044.729" cy="434.495" rx="2.223" ry="1.913" fill="#fff" opacity=".561"/><ellipse cx="1192.343" cy="424.929" rx="1.761" ry="1.281" fill="#fff" opacity=".198"/><ellipse cx="1203.644" cy="422.018" rx="2.031" ry="1.536" fill="#fff" opacity="-.057"/><ellipse cx="1335.23" cy="417.899" rx="1.795" ry="1.761" fill="#fff" opacity=".658"/><ellipse cx="1377.944" cy="438.119" rx="1.509" ry="1.026" fill="#fff" opacity=".549"/><ellipse cx="1508.946" cy="413.118" rx="2.393" ry="1.912" fill="#fff" opacity=".179"/><ellipse cx="1580.689" cy="446.924" rx="2.2" ry="1.93" fill="#fff" opacity=".771"/><ellipse cx="1626.219" cy="425.84" rx="1.3" ry="1.21" fill="#fff" opacity=".564"/><ellipse cx="1739.612" cy="435.066" rx="2.373" ry="1.948" fill="#fff" opacity="-.057"/><ellipse cx="1792.097" cy="423.292" rx="1.723" ry="1.424" fill="#fff" opacity="-.001"/><ellipse cx="1877.478" cy="446.653" rx="2.102" ry="1.66" fill="#fff" opacity=".384"/><ellipse cx="1997.343" cy="418.809" rx="1.277" ry="1.194" fill="#fff" opacity=".616"/><ellipse cx="11.492" cy="474.3" rx="1.317" ry="1.143" fill="#fff" opacity=".212"/><ellipse cx="152.735" cy="453.976" rx="2.115" ry="1.884" fill="#fff" opacity=".657"/><ellipse cx="161.904" cy="475.057" rx="1.882" ry="1.81" fill="#fff" opacity=".617"/><ellipse cx="311.77" cy="469.022" rx="1.95" ry="1.841" fill="#fff" opacity=".832"/><ellipse cx="394.11" cy="457.159" rx="2.045" ry="1.852" fill="#fff" opacity=".391"/><ellipse cx="411.792" cy="450.791" rx="1.847" ry="1.694" fill="#fff" opacity=".878"/><ellipse cx="548.167" cy="465.727" rx="2.36" ry="1.878" fill="#fff" opacity=".166"/><ellipse cx="560.787" cy="493.537" rx="1.228" ry="1.085" fill="#fff" opacity=".592"/><ellipse cx="685.521" cy="464.824" rx="2.369" ry="1.882" fill="#fff" opacity=".021"/><ellipse cx="739.564" cy="464.82" rx="1.481" ry="1.265" fill="#fff" opacity="-.007"/><ellipse cx="818.466" cy="493.015" rx="1.578" ry="1.305" fill="#fff" opacity=".571"/><ellipse cx="888.463" cy="470.583" rx="1.649" ry="1.202" fill="#fff" opacity=".485"/><ellipse cx="978.721" cy="456.039" rx="1.442" ry="1.381" fill="#fff" opacity=".493"/><ellipse cx="1049.086" cy="455.901" rx="1.813" ry="1.769" fill="#fff" opacity=".471"/><ellipse cx="1131.797" cy="461.876" rx="1.436" ry="1.002" fill="#fff" opacity=".694"/><ellipse cx="1238.296" cy="462.293" rx="1.598" ry="1.162" fill="#fff" opacity=".232"/><ellipse cx="1353.318" cy="478.654" rx="2.026" ry="1.955" fill="#fff" opacity=".132"/><ellipse cx="1427.486" cy="457.097" rx="2.263" ry="1.883" fill="#fff" opacity=".569"/><ellipse cx="1512.436" cy="450.619" rx="1.989" ry="1.866" fill="#fff" opacity=".009"/><ellipse cx="1527.366" cy="455.214" rx="2.09" ry="1.691" fill="#fff" opacity=".206"/><ellipse cx="1629.181" cy="484.676" rx="1.213" ry="1.198" fill="#fff" opacity="-.255"/><ellipse cx="1750.666" cy="485.586" rx="2.107" ry="1.805" fill="#fff" opacity="-.174"/><ellipse cx="1767.771" cy="498.324" rx="1.734" ry="1.255" fill="#fff" opacity=".306"/><ellipse cx="1876.745" cy="493.285" rx="1.418" ry="1.189" fill="#fff" opacity=".211"/><ellipse cx="1941.464" cy="466.217" rx="1.356" ry="1.1" fill="#fff" opacity=".019"/><ellipse cx="57.985" cy="522.391" rx="1.806" ry="1.432" fill="#fff" opacity=".354"/><ellipse cx="91.249" cy="523.199" rx="1.61" ry="1.229" fill="#fff" opacity=".766"/><ellipse cx="180.831" cy="505.522" rx="2.022" ry="1.613" fill="#fff" opacity="-.227"/><ellipse cx="245.218" cy="540.203" rx="1.892" ry="1.818" fill="#fff" opacity=".342"/><ellipse cx="351.317" cy="508.032" rx="1.872" ry="1.698" fill="#fff" opacity=".162"/><ellipse cx="402.482" cy="540.907" rx="1.472" ry="1.409" fill="#fff" opacity=".421"/><ellipse cx="520.665" cy="520.902" rx="1.274" ry="1.091" fill="#fff" opacity=".372"/><ellipse cx="603.98" cy="536.716" rx="2.132" ry="1.904" fill="#fff" opacity=".682"/><ellipse cx="674.942" cy="547.949" rx="1.682" ry="1.466" fill="#fff" opacity=".976"/><ellipse cx="756.521" cy="508.873" rx="1.95" ry="1.512" fill="#fff" opacity=".732"/><ellipse cx="877.928" cy="544.522" rx="1.685" ry="1.405" fill="#fff" opacity=".662"/><ellipse cx="958.609" cy="518.784" rx="1.502" ry="1.437" fill="#fff" opacity=".226"/><ellipse cx="1010.304" cy="547.165" rx="2.131" ry="1.877" fill="#fff" opacity=".261"/><ellipse cx="1065.998" cy="534.565" rx="1.438" ry="1.436" fill="#fff" opacity=".311"/><ellipse cx="1173.782" cy="526.081" rx="1.779" ry="1.576" fill="#fff" opacity=".365"/><ellipse cx="1230.61" cy="546.596" rx="1.761" ry="1.47" fill="#fff" opacity=".617"/><ellipse cx="1284.814" cy="546.743" rx="2.048" ry="1.581" fill="#fff" opacity=".866"/><ellipse cx="1407.097" cy="536.532" rx="1.935" ry="1.704" fill="#fff" opacity=".256"/><ellipse cx="1486.872" cy="545.878" rx="1.627" ry="1.181" fill="#fff" opacity=".485"/><ellipse cx="1579.423" cy="530.654" rx="2.319" ry="1.855" fill="#fff" opacity=".084"/><ellipse cx="1667.72" cy="531.809" rx="1.383" ry="1.183" fill="#fff" opacity=".177"/><ellipse cx="1692.201" cy="500.319" rx="1.778" ry="1.593" fill="#fff" opacity=".041"/><ellipse cx="1794.356" cy="506.601" rx="1.753" ry="1.514" fill="#fff" opacity="-.002"/><ellipse cx="1910.837" cy="516.079" rx="1.79" ry="1.621" fill="#fff" opacity=".654"/><ellipse cx="1937.541" cy="547.637" rx="1.868" ry="1.679" fill="#fff" opacity=".192"/><ellipse cx="35.476" cy="552.225" rx="1.355" ry="1.033" fill="#fff" opacity="-.032"/><ellipse cx="91.965" cy="587.424" rx="1.823" ry="1.522" fill="#fff" opacity="-.056"/><ellipse cx="221.573" cy="563.902" rx="1.177" ry="1.172" fill="#fff" opacity=".409"/><ellipse cx="253.75" cy="554.274" rx="2.222" ry="1.925" fill="#fff" opacity=".323"/><ellipse cx="361.91" cy="593.712" rx="2.234" ry="1.938" fill="#fff" opacity=".188"/><ellipse cx="440.727" cy="580.089" rx="1.354" ry="1.265" fill="#fff" opacity=".757"/><ellipse cx="488.044" cy="571.832" rx="2.057" ry="1.846" fill="#fff" opacity=".087"/><ellipse cx="628.697" cy="577.675" rx="1.619" ry="1.222" fill="#fff" opacity="-.207"/><ellipse cx="668.791" cy="599.853" rx="2.285" ry="1.948" fill="#fff" opacity=".066"/><ellipse cx="744.944" cy="564.679" rx="1.603" ry="1.32" fill="#fff" opacity=".576"/><ellipse cx="816.454" cy="555.269" rx="1.858" ry="1.548" fill="#fff" opacity="-.136"/><ellipse cx="905.003" cy="597.013" rx="2.266" ry="1.933" fill="#fff" opacity="-.012"/><ellipse cx="979.264" cy="555.598" rx="1.804" ry="1.633" fill="#fff" opacity=".182"/><ellipse cx="1103.792" cy="559.954" rx="1.708" ry="1.516" fill="#fff" opacity=".094"/><ellipse cx="1182.264" cy="553.792" rx="1.373" ry="1.031" fill="#fff" opacity=".633"/><ellipse cx="1258.203" cy="579.621" rx="2.142" ry="1.764" fill="#fff" opacity=".692"/><ellipse cx="1338.039" cy="596.824" rx="2.211" ry="1.832" fill="#fff" opacity=".384"/><ellipse cx="1397.546" cy="577.845" rx="1.721" ry="1.286" fill="#fff" opacity=".498"/><ellipse cx="1450.456" cy="552.946" rx="2.123" ry="1.832" fill="#fff" opacity=".723"/><ellipse cx="1564.091" cy="597.568" rx="1.212" ry="1.152" fill="#fff" opacity="-.037"/><ellipse cx="1624.365" cy="596.474" rx="2.16" ry="1.751" fill="#fff" opacity=".593"/><ellipse cx="1737.304" cy="566.033" rx="1.666" ry="1.531" fill="#fff" opacity=".004"/><ellipse cx="1789.385" cy="572.905" rx="1.893" ry="1.786" fill="#fff" opacity=".648"/><ellipse cx="1870.584" cy="559.598" rx="1.702" ry="1.497" fill="#fff" opacity=".428"/><ellipse cx="1976.899" cy="598.327" rx="1.196" ry="1.163" fill="#fff" opacity=".527"/><ellipse cx="66.146" cy="634.534" rx="1.698" ry="1.327" fill="#fff" opacity=".303"/><ellipse cx="95.558" cy="624.757" rx="1.248" ry="1.03" fill="#fff" opacity=".204"/><ellipse cx="207.925" cy="605.432" rx="1.305" ry="1.043" fill="#fff" opacity="-.131"/><ellipse cx="282.813" cy="629.945" rx="1.676" ry="1.541" fill="#fff" opacity=".067"/><ellipse cx="355.641" cy="647.683" rx="1.844" ry="1.6" fill="#fff" opacity=".389"/><ellipse cx="402.584" cy="641.42" rx="1.374" ry="1.227" fill="#fff" opacity=".724"/><ellipse cx="508.558" cy="614.989" rx="1.22" ry="1.064" fill="#fff" opacity=".136"/><ellipse cx="633.165" cy="647.887" rx="2.296" ry="1.921" fill="#fff" opacity=".148"/><ellipse cx="679.124" cy="613.098" rx="2.06" ry="1.848" fill="#fff" opacity=".005"/><ellipse cx="789.858" cy="606.959" rx="1.919" ry="1.737" fill="#fff" opacity="-.14"/><ellipse cx="863.689" cy="634.632" rx="1.31" ry="1.039" fill="#fff" opacity=".664"/><ellipse cx="919.058" cy="626.172" rx="2.118" ry="1.715" fill="#fff" opacity=".038"/><ellipse cx="1016.413" cy="639.283" rx="1.952" ry="1.839" fill="#fff" opacity=".726"/><ellipse cx="1040.267" cy="613.328" rx="1.243" ry="1.088" fill="#fff" opacity=".661"/><ellipse cx="1162.365" cy="626.136" rx="1.797" ry="1.779" fill="#fff" opacity=".367"/><ellipse cx="1266.492" cy="626.345" rx="1.924" ry="1.462" fill="#fff" opacity=".433"/><ellipse cx="1349.273" cy="607.053" rx="1.815" ry="1.524" fill="#fff" opacity="-.168"/><ellipse cx="1435.851" cy="643.283" rx="2.057" ry="1.734" fill="#fff" opacity=".281"/><ellipse cx="1498.509" cy="623.195" rx="1.489" ry="1.022" fill="#fff" opacity=".391"/><ellipse cx="1527.394" cy="620.569" rx="1.417" ry="1.035" fill="#fff" opacity="-.022"/><ellipse cx="1673.292" cy="647.049" rx="1.959" ry="1.49" fill="#fff" opacity="-.009"/><ellipse cx="1737.798" cy="629.701" rx="1.619" ry="1.334" fill="#fff" opacity=".326"/><ellipse cx="1828.587" cy="630.683" rx="1.91" ry="1.524" fill="#fff" opacity=".794"/><ellipse cx="1903.304" cy="635.591" rx="1.156" ry="1.007" fill="#fff" opacity=".069"/><ellipse cx="1955.54" cy="637.429" rx="2.095" ry="1.896" fill="#fff" opacity=".066"/><ellipse cx="15.429" cy="699.251" rx="1.502" ry="1.118" fill="#fff" opacity=".205"/><ellipse cx="101.489" cy="674.663" rx="1.675" ry="1.458" fill="#fff" opacity="-.049"/><ellipse cx="181.913" cy="699.049" rx="1.319" ry="1.185" fill="#fff" opacity=".698"/><ellipse cx="255.742" cy="687.516" rx="1.894" ry="1.641" fill="#fff" opacity=".585"/><ellipse cx="332.243" cy="665.395" rx="1.61" ry="1.413" fill="#fff" opacity=".305"/><ellipse cx="415.796" cy="697.737" rx="2.39" ry="1.966" fill="#fff" opacity=".242"/><ellipse cx="485.678" cy="662.527" rx="1.243" ry="1.154" fill="#fff" opacity=".901"/><ellipse cx="629.976" cy="660.257" rx="1.769" ry="1.389" fill="#fff" opacity=".724"/><ellipse cx="672.36" cy="666.434" rx="1.419" ry="1.388" fill="#fff" opacity=".352"/><ellipse cx="791.391" cy="694.348" rx="2.03" ry="1.535" fill="#fff" opacity=".258"/><ellipse cx="824.807" cy="661.065" rx="1.53" ry="1.204" fill="#fff" opacity=".58"/><ellipse cx="932.005" cy="667.213" rx="1.826" ry="1.59" fill="#fff" opacity=".68"/><ellipse cx="961.283" cy="684.135" rx="1.316" ry="1.072" fill="#fff" opacity="-.159"/><ellipse cx="1048.607" cy="682.672" rx="1.577" ry="1.511" fill="#fff" opacity=".815"/><ellipse cx="1153.807" cy="697.886" rx="1.434" ry="1.399" fill="#fff" opacity=".566"/><ellipse cx="1216.779" cy="693.492" rx="1.935" ry="1.578" fill="#fff" opacity=".124"/><ellipse cx="1294.271" cy="671.947" rx="2.345" ry="1.907" fill="#fff" opacity="-.138"/><ellipse cx="1417.161" cy="653.154" rx="1.535" ry="1.195" fill="#fff" opacity=".725"/><ellipse cx="1470.358" cy="698.06" rx="1.878" ry="1.722" fill="#fff" opacity=".134"/><ellipse cx="1526.871" cy="655.885" rx="1.371" ry="1.324" fill="#fff" opacity="-.154"/><ellipse cx="1656.279" cy="670.037" rx="1.918" ry="1.74" fill="#fff" opacity=".27"/><ellipse cx="1689.362" cy="664.262" rx="2.275" ry="1.934" fill="#fff" opacity=".139"/><ellipse cx="1819.875" cy="682.711" rx="1.246" ry="1.148" fill="#fff" opacity=".509"/><ellipse cx="1885.523" cy="670.696" rx="1.355" ry="1.262" fill="#fff" opacity=".285"/><ellipse cx="1961.886" cy="694.258" rx="2.18" ry="1.708" fill="#fff" opacity=".399"/><ellipse cx="62.045" cy="705.753" rx="2.175" ry="1.753" fill="#fff" opacity=".751"/><ellipse cx="139.257" cy="739.02" rx="1.411" ry="1.319" fill="#fff" opacity=".701"/><ellipse cx="210.177" cy="735.36" rx="2.021" ry="1.671" fill="#fff" opacity=".374"/><ellipse cx="308.416" cy="733.366" rx="1.676" ry="1.56" fill="#fff" opacity=".345"/><ellipse cx="338.048" cy="741.704" rx="1.189" ry="1.117" fill="#fff" opacity=".267"/><ellipse cx="445.952" cy="736.967" rx="1.567" ry="1.131" fill="#fff" opacity=".554"/><ellipse cx="494.527" cy="701.712" rx="2.187" ry="1.757" fill="#fff" opacity=".676"/><ellipse cx="568.216" cy="716.172" rx="2.295" ry="1.855" fill="#fff" opacity="-.046"/><ellipse cx="658.661" cy="709.541" rx="1.614" ry="1.202" fill="#fff" opacity=".259"/><ellipse cx="787.863" cy="749.645" rx="1.098" ry="1.057" fill="#fff" opacity=".58"/><ellipse cx="812.57" cy="719.248" rx="2.137" ry="1.736" fill="#fff" opacity="-.053"/><ellipse cx="898.755" cy="719.527" rx="1.928" ry="1.867" fill="#fff" opacity=".429"/><ellipse cx="1023.444" cy="716.913" rx="1.927" ry="1.576" fill="#fff" opacity="-.106"/><ellipse cx="1103.823" cy="743.553" rx="1.611" ry="1.478" fill="#fff" opacity="-.033"/><ellipse cx="1188.298" cy="707.833" rx="1.667" ry="1.498" fill="#fff" opacity=".148"/><ellipse cx="1237.714" cy="746.569" rx="2.397" ry="1.995" fill="#fff" opacity=".37"/><ellipse cx="1353.375" cy="732.141" rx="1.623" ry="1.541" fill="#fff" opacity=".491"/><ellipse cx="1381.127" cy="737.295" rx="1.507" ry="1.135" fill="#fff" opacity=".454"/><ellipse cx="1493.871" cy="705.505" rx="1.853" ry="1.435" fill="#fff" opacity=".921"/><ellipse cx="1558.136" cy="745.646" rx="1.744" ry="1.674" fill="#fff" opacity=".802"/><ellipse cx="1635.281" cy="736.965" rx="2.162" ry="1.949" fill="#fff" opacity=".642"/><ellipse cx="1703.903" cy="726.442" rx="1.815" ry="1.394" fill="#fff" opacity=".436"/><ellipse cx="1800.466" cy="736.657" rx="2.18" ry="1.922" fill="#fff" opacity=".479"/><ellipse cx="1875.869" cy="742.366" rx="1.98" ry="1.812" fill="#fff" opacity=".259"/><ellipse cx="1975.083" cy="710.27" rx="2.224" ry="1.754" fill="#fff" opacity="-.149"/><ellipse cx="35.54" cy="795.355" rx="1.72" ry="1.61" fill="#fff" opacity=".298"/><ellipse cx="81.947" cy="768.084" rx="1.663" ry="1.587" fill="#fff" opacity=".776"/><ellipse cx="234.405" cy="756.444" rx="2.004" ry="1.72" fill="#fff" opacity=".636"/><ellipse cx="292.136" cy="789.255" rx="1.477" ry="1.351" fill="#fff" opacity=".04"/><ellipse cx="398.766" cy="777.271" rx="2.071" ry="1.75" fill="#fff" opacity=".809"/><ellipse cx="477.643" cy="751.106" rx="2.191" ry="1.892" fill="#fff" opacity=".363"/><ellipse cx="492.511" cy="772.865" rx="2.22" ry="1.861" fill="#fff" opacity=".04"/><ellipse cx="632.372" cy="774.81" rx="1.691" ry="1.291" fill="#fff" opacity=".151"/><ellipse cx="692.407" cy="789.018" rx="2.09" ry="1.84" fill="#fff" opacity="-.163"/><ellipse cx="720.8" cy="776.925" rx="1.985" ry="1.66" fill="#fff" opacity=".201"/><ellipse cx="822.287" cy="753.9" rx="1.512" ry="1.185" fill="#fff" opacity=".717"/><ellipse cx="923.567" cy="792.647" rx="1.991" ry="1.584" fill="#fff" opacity=".61"/><ellipse cx="1021.416" cy="794.041" rx="2.07" ry="1.896" fill="#fff" opacity=".748"/><ellipse cx="1052.25" cy="798.574" rx="1.478" ry="1.46" fill="#fff" opacity=".192"/><ellipse cx="1123.23" cy="794.111" rx="1.593" ry="1.254" fill="#fff" opacity=".493"/><ellipse cx="1272.044" cy="784.819" rx="1.491" ry="1.48" fill="#fff" opacity=".683"/><ellipse cx="1355.455" cy="797.684" rx="1.345" ry="1.01" fill="#fff" opacity=".916"/><ellipse cx="1430.285" cy="780.07" rx="1.436" ry="1.044" fill="#fff" opacity=".02"/><ellipse cx="1457.289" cy="792.981" rx="1.813" ry="1.705" fill="#fff" opacity=".277"/><ellipse cx="1587.129" cy="776.381" rx="1.093" ry="1.084" fill="#fff" opacity="-.043"/><ellipse cx="1614.227" cy="788.978" rx="1.579" ry="1.528" fill="#fff" opacity=".492"/><ellipse cx="1747.077" cy="775.705" rx="2.269" ry="1.771" fill="#fff" opacity=".148"/><ellipse cx="1806.798" cy="762.276" rx="1.771" ry="1.281" fill="#fff" opacity=".043"/><ellipse cx="1878.219" cy="764.736" rx="1.635" ry="1.159" fill="#fff" opacity=".115"/><ellipse cx="1975.951" cy="787.466" rx="1.665" ry="1.211" fill="#fff" opacity=".344"/><ellipse cx="11.098" cy="813.264" rx="1.91" ry="1.775" fill="#fff" opacity=".176"/><ellipse cx="108.317" cy="832.616" rx="1.086" ry="1.037" fill="#fff" opacity=".294"/><ellipse cx="193.487" cy="827.926" rx="1.611" ry="1.433" fill="#fff" opacity=".565"/><ellipse cx="307.796" cy="845.663" rx="1.24" ry="1.239" fill="#fff" opacity=".256"/><ellipse cx="343.021" cy="829.825" rx="1.458" ry="1.278" fill="#fff" opacity="-.048"/><ellipse cx="475.502" cy="822.076" rx="1.769" ry="1.338" fill="#fff" opacity="-.019"/><ellipse cx="513.743" cy="843.338" rx="1.834" ry="1.459" fill="#fff" opacity=".425"/><ellipse cx="627.545" cy="832.397" rx="1.268" ry="1.258" fill="#fff" opacity="-.102"/><ellipse cx="692.681" cy="825.643" rx="1.469" ry="1.088" fill="#fff" opacity=".563"/><ellipse cx="744.793" cy="841.739" rx="1.861" ry="1.549" fill="#fff" opacity="-.165"/><ellipse cx="804.781" cy="838.217" rx="1.444" ry="1.344" fill="#fff" opacity=".877"/><ellipse cx="894.223" cy="825.468" rx="1.13" ry="1.011" fill="#fff" opacity=".616"/><ellipse cx="999.764" cy="808.255" rx="2.1" ry="1.724" fill="#fff" opacity=".261"/><ellipse cx="1101.522" cy="801.292" rx="1.553" ry="1.065" fill="#fff" opacity=".907"/><ellipse cx="1199.086" cy="844.912" rx="1.753" ry="1.625" fill="#fff" opacity=".827"/><ellipse cx="1240.283" cy="810.941" rx="2.217" ry="1.987" fill="#fff" opacity=".055"/><ellipse cx="1324.613" cy="839.049" rx="1.34" ry="1.275" fill="#fff" opacity=".298"/><ellipse cx="1369.887" cy="845.78" rx="1.594" ry="1.432" fill="#fff" opacity=".509"/><ellipse cx="1471.617" cy="846.051" rx="2.278" ry="1.86" fill="#fff" opacity="-.009"/><ellipse cx="1584.599" cy="806.874" rx="1.878" ry="1.863" fill="#fff" opacity=".505"/><ellipse cx="1678.961" cy="822.309" rx="1.918" ry="1.657" fill="#fff" opacity=".838"/><ellipse cx="1707.208" cy="839.497" rx="1.671" ry="1.545" fill="#fff" opacity=".481"/><ellipse cx="1836.105" cy="818.775" rx="1.639" ry="1.276" fill="#fff" opacity="-.201"/><ellipse cx="1915.021" cy="827.98" rx="1.583" ry="1.38" fill="#fff" opacity=".773"/><ellipse cx="1969.421" cy="806.826" rx="1.999" ry="1.971" fill="#fff" opacity="-.224"/><ellipse cx="19.917" cy="870.016" rx="1.945" ry="1.629" fill="#fff" opacity=".435"/><ellipse cx="95.552" cy="879.771" rx="1.73" ry="1.248" fill="#fff" opacity="-.224"/><ellipse cx="189.006" cy="888.223" rx="1.65" ry="1.402" fill="#fff" opacity=".335"/><ellipse cx="268.238" cy="867.227" rx="2.415" ry="1.978" fill="#fff" opacity=".607"/><ellipse cx="390.018" cy="891.871" rx="2.389" ry="1.938" fill="#fff" opacity=".015"/><ellipse cx="443.395" cy="859.409" rx="2.285" ry="1.932" fill="#fff" opacity=".656"/><ellipse cx="551.532" cy="850.126" rx="2.276" ry="1.862" fill="#fff" opacity=".08"/><ellipse cx="584.893" cy="877.172" rx="1.994" ry="1.705" fill="#fff" opacity=".364"/><ellipse cx="699.84" cy="862.85" rx="1.721" ry="1.424" fill="#fff" opacity=".123"/><ellipse cx="786.526" cy="886.195" rx="1.483" ry="1.283" fill="#fff" opacity=".527"/><ellipse cx="831.207" cy="889.523" rx="2.008" ry="1.999" fill="#fff" opacity="-.296"/><ellipse cx="884.543" cy="883.369" rx="1.973" ry="1.552" fill="#fff" opacity=".567"/><ellipse cx="1014.506" cy="858.979" rx="1.572" ry="1.253" fill="#fff" opacity=".57"/><ellipse cx="1053.758" cy="855.242" rx="1.114" ry="1.011" fill="#fff" opacity=".36"/><ellipse cx="1137.264" cy="895.488" rx="1.838" ry="1.567" fill="#fff" opacity=".287"/><ellipse cx="1205.7" cy="870.212" rx="1.434" ry="1.21" fill="#fff" opacity=".112"/><ellipse cx="1307.63" cy="866.79" rx="2.007" ry="1.821" fill="#fff" opacity=".451"/><ellipse cx="1431.006" cy="857.32" rx="1.945" ry="1.628" fill="#fff" opacity=".886"/><ellipse cx="1462.347" cy="860.71" rx="2.187" ry="1.841" fill="#fff" opacity="-.058"/><ellipse cx="1530.902" cy="854.772" rx="1.877" ry="1.726" fill="#fff" opacity=".715"/><ellipse cx="1675.115" cy="886.435" rx="1.827" ry="1.724" fill="#fff" opacity=".105"/><ellipse cx="1732.644" cy="895.697" rx="2.265" ry="1.859" fill="#fff" opacity=".419"/><ellipse cx="1784.136" cy="882.089" rx="1.364" ry="1.268" fill="#fff" opacity=".095"/><ellipse cx="1917.602" cy="890.223" rx="1.942" ry="1.561" fill="#fff" opacity=".038"/><ellipse cx="1966.051" cy="855.979" rx="1.269" ry="1.266" fill="#fff" opacity=".531"/><ellipse cx="14.256" cy="934.005" rx="1.96" ry="1.948" fill="#fff" opacity=".246"/><ellipse cx="127.255" cy="943.561" rx="1.63" ry="1.213" fill="#fff" opacity="-.056"/><ellipse cx="206.249" cy="939.899" rx="1.753" ry="1.59" fill="#fff" opacity=".635"/><ellipse cx="265.496" cy="908.704" rx="1.54" ry="1.415" fill="#fff" opacity=".39"/><ellipse cx="356.299" cy="905.171" rx="1.894" ry="1.751" fill="#fff" opacity=".647"/><ellipse cx="414.703" cy="909.18" rx="2.18" ry="1.88" fill="#fff" opacity=".519"/><ellipse cx="511.798" cy="944.619" rx="1.614" ry="1.469" fill="#fff" opacity=".03"/><ellipse cx="601.064" cy="906.457" rx="1.286" ry="1.088" fill="#fff" opacity=".647"/><ellipse cx="648.822" cy="904.686" rx="1.356" ry="1.237" fill="#fff" opacity=".562"/><ellipse cx="792.069" cy="900.176" rx="1.681" ry="1.447" fill="#fff" opacity=".671"/><ellipse cx="863.859" cy="920.984" rx="1.442" ry="1.317" fill="#fff" opacity=".461"/><ellipse cx="943.991" cy="923.867" rx="2.306" ry="1.838" fill="#fff" opacity=".356"/><ellipse cx="1027.049" cy="941.034" rx="2.384" ry="1.943" fill="#fff" opacity=".456"/><ellipse cx="1085.54" cy="910.762" rx="1.17" ry="1.073" fill="#fff" opacity=".266"/><ellipse cx="1124.433" cy="931.775" rx="1.654" ry="1.343" fill="#fff" opacity=".85"/><ellipse cx="1239.863" cy="901.3" rx="1.615" ry="1.342" fill="#fff" opacity=".566"/><ellipse cx="1317.709" cy="908.055" rx="2.22" ry="1.984" fill="#fff" opacity=".523"/><ellipse cx="1390.765" cy="933.829" rx="1.316" ry="1.301" fill="#fff" opacity=".74"/><ellipse cx="1454.2" cy="929.064" rx="2.113" ry="1.77" fill="#fff" opacity=".187"/><ellipse cx="1528.004" cy="916.326" rx="1.73" ry="1.459" fill="#fff" opacity=".107"/><ellipse cx="1678.646" cy="920.269" rx="2.023" ry="1.583" fill="#fff" opacity=".53"/><ellipse cx="1734.608" cy="940.427" rx="1.453" ry="1.286" fill="#fff" opacity=".525"/><ellipse cx="1771.547" cy="902.895" rx="1.31" ry="1.134" fill="#fff" opacity=".571"/><ellipse cx="1918.238" cy="920.175" rx="1.655" ry="1.25" fill="#fff" opacity=".665"/><ellipse cx="1950.946" cy="910.004" rx="1.658" ry="1.365" fill="#fff" opacity=".102"/><ellipse cx="24.493" cy="970.335" rx="2.015" ry="1.867" fill="#fff" opacity=".585"/><ellipse cx="140.023" cy="968.811" rx="1.722" ry="1.385" fill="#fff" opacity="-.042"/><ellipse cx="212.136" cy="950.439" rx="1.765" ry="1.545" fill="#fff" opacity=".275"/><ellipse cx="284.813" cy="962.979" rx="1.498" ry="1.228" fill="#fff" opacity=".013"/><ellipse cx="363.933" cy="979.139" rx="2.034" ry="1.933" fill="#fff" opacity=".319"/><ellipse cx="436.588" cy="961.984" rx="1.77" ry="1.593" fill="#fff" opacity=".665"/><ellipse cx="491.438" cy="998.663" rx="1.262" ry="1.006" fill="#fff" opacity=".935"/><ellipse cx="623.492" cy="960.668" rx="1.423" ry="1.246" fill="#fff" opacity=".081"/><ellipse cx="702.45" cy="959.22" rx="1.237" ry="1.209" fill="#fff" opacity=".409"/><ellipse cx="785.688" cy="950.333" rx="1.363" ry="1.022" fill="#fff" opacity=".791"/><ellipse cx="827.935" cy="978.773" rx="1.178" ry="1.071" fill="#fff" opacity=".093"/><ellipse cx="895.017" cy="963.276" rx="1.66" ry="1.347" fill="#fff" opacity="-.258"/><ellipse cx="985.263" cy="997.909" rx="1.829" ry="1.436" fill="#fff" opacity=".843"/><ellipse cx="1066.401" cy="997.813" rx="1.951" ry="1.616" fill="#fff" opacity=".425"/><ellipse cx="1149.774" cy="950.888" rx="1.384" ry="1.265" fill="#fff" opacity=".114"/><ellipse cx="1202.359" cy="988.877" rx="1.852" ry="1.554" fill="#fff" opacity=".11"/><ellipse cx="1353.059" cy="956.455" rx="2.118" ry="1.986" fill="#fff" opacity=".778"/><ellipse cx="1364.202" cy="968.803" rx="1.605" ry="1.284" fill="#fff" opacity=".851"/><ellipse cx="1512.166" cy="971.286" rx="2.249" ry="1.825" fill="#fff" opacity=".72"/><ellipse cx="1591.752" cy="969.651" rx="1.233" ry="1.015" fill="#fff" opacity=".086"/><ellipse cx="1639.377" cy="985.499" rx="1.566" ry="1.507" fill="#fff" opacity="-.098"/><ellipse cx="1726.092" cy="959.24" rx="1.757" ry="1.458" fill="#fff" opacity=".733"/><ellipse cx="1785.965" cy="973.944" rx="1.355" ry="1.162" fill="#fff" opacity=".548"/><ellipse cx="1887.905" cy="993.537" rx="1.248" ry="1.083" fill="#fff" opacity=".2"/><ellipse cx="1946.329" cy="959.383" rx="1.557" ry="1.431" fill="#fff" opacity=".476"/></svg>